# xmcd
#
# Track frame offsets:
#	183
#	15270
#	25530
#	40328
#	62585
#	79758
#	92443
#	111705
#	124670
#	141455
#	158310
#	176223
#	189373
#	205673
#	225975
#	241545
#	258840
#	283483
#	298090
#
# Disc length: 4187 seconds
#
# Revision: 1
# Processed by: cddbd v1.4PL0 Copyright (c) Steve Scherf et al.
# Submitted via: audiograbber 1.80
#
DISCID=f8105913
DTITLE=Rossy - Madagascar
DYEAR=1900
DGENRE=
TTITLE0=Papa Mandela
TTITLE1=Lehilahy mahery
TTITLE2=Any imalala
TTITLE3=Ambilahao zaho
TTITLE4=Avela ho avy
TTITLE5=Manjelatra
TTITLE6=Marary africa
TTITLE7=Mitombo
TTITLE8=Soa fa nisy anareo
TTITLE9=Raha manina
TTITLE10=Madagasikara
TTITLE11=Marobe
TTITLE12=Hira-gasy
TTITLE13=Aza-itsaninao
TTITLE14=Vakisoava
TTITLE15=Ka meloke
TTITLE16=Alin kisa
TTITLE17=Mitotototo
TTITLE18=Vakisiny
EXTD=
EXTT0=
EXTT1=
EXTT2=
EXTT3=
EXTT4=
EXTT5=
EXTT6=
EXTT7=
EXTT8=
EXTT9=
EXTT10=
EXTT11=
EXTT12=
EXTT13=
EXTT14=
EXTT15=
EXTT16=
EXTT17=
EXTT18=
PLAYORDER=
